<mxfile host="app.diagrams.net" modified="2024-03-27T18:52:07.837Z" agent="Mozilla/5.0 (X11; Linux x86_64) AppleWebKit/537.36 (KHTML, like Gecko) Chrome/116.0.0.0 Safari/537.36" etag="pJsN1MuEFAvHARAikQyp" version="24.2.0" type="device">
  <diagram name="PÃ¡gina-1" id="r-XNhl2JiSIF0rfBmRSS">
    <mxGraphModel dx="1360" dy="803" grid="1" gridSize="10" guides="1" tooltips="1" connect="1" arrows="1" fold="1" page="1" pageScale="1" pageWidth="827" pageHeight="1169" math="0" shadow="0">
      <root>
        <mxCell id="0" />
        <mxCell id="1" parent="0" />
        <mxCell id="Z8j0xVn-qenzTuLZ5LcE-1" value="rnaSPAdes" style="rounded=1;whiteSpace=wrap;html=1;fillColor=#24FFFF;" parent="1" vertex="1">
          <mxGeometry x="504" y="200" width="120" height="60" as="geometry" />
        </mxCell>
        <mxCell id="Z8j0xVn-qenzTuLZ5LcE-4" style="edgeStyle=orthogonalEdgeStyle;rounded=0;orthogonalLoop=1;jettySize=auto;html=1;entryX=0;entryY=0.5;entryDx=0;entryDy=0;" parent="1" source="Z8j0xVn-qenzTuLZ5LcE-3" target="Z8j0xVn-qenzTuLZ5LcE-1" edge="1">
          <mxGeometry relative="1" as="geometry" />
        </mxCell>
        <mxCell id="Z8j0xVn-qenzTuLZ5LcE-3" value="&lt;div&gt;&lt;br&gt;&lt;/div&gt;&lt;div&gt;Filtered&lt;/div&gt;reads&lt;div&gt;(.fastq)&lt;/div&gt;" style="shape=note;whiteSpace=wrap;html=1;backgroundOutline=1;darkOpacity=0.05;" parent="1" vertex="1">
          <mxGeometry x="384" y="180" width="80" height="100" as="geometry" />
        </mxCell>
        <mxCell id="B1VOk_Cgj1nYwEQHLCgj-9" style="edgeStyle=orthogonalEdgeStyle;rounded=0;orthogonalLoop=1;jettySize=auto;html=1;entryX=1;entryY=0.5;entryDx=0;entryDy=0;curved=1;" edge="1" parent="1" source="Z8j0xVn-qenzTuLZ5LcE-5" target="Z8j0xVn-qenzTuLZ5LcE-7">
          <mxGeometry relative="1" as="geometry">
            <Array as="points">
              <mxPoint x="704" y="350" />
            </Array>
          </mxGeometry>
        </mxCell>
        <mxCell id="Z8j0xVn-qenzTuLZ5LcE-5" value="&lt;div&gt;Contigs&lt;/div&gt;&lt;div&gt;(.fasta)&lt;/div&gt;" style="shape=note;whiteSpace=wrap;html=1;backgroundOutline=1;darkOpacity=0.05;" parent="1" vertex="1">
          <mxGeometry x="664" y="180" width="80" height="100" as="geometry" />
        </mxCell>
        <mxCell id="B1VOk_Cgj1nYwEQHLCgj-10" style="edgeStyle=orthogonalEdgeStyle;rounded=0;orthogonalLoop=1;jettySize=auto;html=1;" edge="1" parent="1" source="Z8j0xVn-qenzTuLZ5LcE-7" target="Z8j0xVn-qenzTuLZ5LcE-8">
          <mxGeometry relative="1" as="geometry" />
        </mxCell>
        <mxCell id="Z8j0xVn-qenzTuLZ5LcE-7" value="VNOM" style="rounded=1;whiteSpace=wrap;html=1;fillColor=#24FFFF;" parent="1" vertex="1">
          <mxGeometry x="504" y="320" width="120" height="60" as="geometry" />
        </mxCell>
        <mxCell id="B1VOk_Cgj1nYwEQHLCgj-11" style="edgeStyle=orthogonalEdgeStyle;rounded=0;orthogonalLoop=1;jettySize=auto;html=1;entryX=1;entryY=0.5;entryDx=0;entryDy=0;" edge="1" parent="1" source="Z8j0xVn-qenzTuLZ5LcE-8" target="Z8j0xVn-qenzTuLZ5LcE-11">
          <mxGeometry relative="1" as="geometry" />
        </mxCell>
        <mxCell id="Z8j0xVn-qenzTuLZ5LcE-8" value="&lt;div&gt;&lt;br&gt;&lt;/div&gt;Viroid-like&lt;div&gt;elements&lt;/div&gt;&lt;div&gt;(.fasta)&lt;/div&gt;" style="shape=note;whiteSpace=wrap;html=1;backgroundOutline=1;darkOpacity=0.05;" parent="1" vertex="1">
          <mxGeometry x="384" y="300" width="80" height="100" as="geometry" />
        </mxCell>
        <mxCell id="B1VOk_Cgj1nYwEQHLCgj-12" style="edgeStyle=orthogonalEdgeStyle;rounded=0;orthogonalLoop=1;jettySize=auto;html=1;" edge="1" parent="1" source="Z8j0xVn-qenzTuLZ5LcE-11" target="Z8j0xVn-qenzTuLZ5LcE-13">
          <mxGeometry relative="1" as="geometry" />
        </mxCell>
        <mxCell id="Z8j0xVn-qenzTuLZ5LcE-11" value="Prodigal" style="rounded=1;whiteSpace=wrap;html=1;fillColor=#24FFFF;" parent="1" vertex="1">
          <mxGeometry x="224" y="320" width="120" height="60" as="geometry" />
        </mxCell>
        <mxCell id="B1VOk_Cgj1nYwEQHLCgj-20" style="edgeStyle=orthogonalEdgeStyle;rounded=0;orthogonalLoop=1;jettySize=auto;html=1;entryX=0.5;entryY=0;entryDx=0;entryDy=0;" edge="1" parent="1" source="Z8j0xVn-qenzTuLZ5LcE-13" target="Z8j0xVn-qenzTuLZ5LcE-22">
          <mxGeometry relative="1" as="geometry" />
        </mxCell>
        <mxCell id="Z8j0xVn-qenzTuLZ5LcE-13" value="&lt;div&gt;&lt;br&gt;&lt;/div&gt;ORFs&lt;div&gt;(.gbk)&lt;/div&gt;" style="shape=note;whiteSpace=wrap;html=1;backgroundOutline=1;darkOpacity=0.05;" parent="1" vertex="1">
          <mxGeometry x="110" y="300" width="80" height="100" as="geometry" />
        </mxCell>
        <mxCell id="B1VOk_Cgj1nYwEQHLCgj-29" style="edgeStyle=orthogonalEdgeStyle;rounded=0;orthogonalLoop=1;jettySize=auto;html=1;" edge="1" parent="1" source="Z8j0xVn-qenzTuLZ5LcE-19" target="B1VOk_Cgj1nYwEQHLCgj-28">
          <mxGeometry relative="1" as="geometry" />
        </mxCell>
        <mxCell id="Z8j0xVn-qenzTuLZ5LcE-19" value="CMScan" style="rounded=1;whiteSpace=wrap;html=1;fillColor=#24FFFF;" parent="1" vertex="1">
          <mxGeometry x="366.5" y="540" width="120" height="60" as="geometry" />
        </mxCell>
        <mxCell id="Z8j0xVn-qenzTuLZ5LcE-22" value="Merge and Phase&lt;div&gt;correction&lt;/div&gt;" style="rounded=1;whiteSpace=wrap;html=1;fillColor=#FFF569;" parent="1" vertex="1">
          <mxGeometry x="90" y="430" width="120" height="60" as="geometry" />
        </mxCell>
        <mxCell id="B1VOk_Cgj1nYwEQHLCgj-22" style="edgeStyle=orthogonalEdgeStyle;rounded=0;orthogonalLoop=1;jettySize=auto;html=1;curved=1;" edge="1" parent="1" source="Z8j0xVn-qenzTuLZ5LcE-27" target="Z8j0xVn-qenzTuLZ5LcE-44">
          <mxGeometry relative="1" as="geometry">
            <Array as="points">
              <mxPoint x="284" y="520" />
              <mxPoint x="142" y="520" />
            </Array>
          </mxGeometry>
        </mxCell>
        <mxCell id="B1VOk_Cgj1nYwEQHLCgj-23" style="edgeStyle=orthogonalEdgeStyle;rounded=0;orthogonalLoop=1;jettySize=auto;html=1;" edge="1" parent="1" source="Z8j0xVn-qenzTuLZ5LcE-27" target="Z8j0xVn-qenzTuLZ5LcE-53">
          <mxGeometry relative="1" as="geometry" />
        </mxCell>
        <mxCell id="B1VOk_Cgj1nYwEQHLCgj-24" style="edgeStyle=orthogonalEdgeStyle;rounded=0;orthogonalLoop=1;jettySize=auto;html=1;curved=1;" edge="1" parent="1" source="Z8j0xVn-qenzTuLZ5LcE-27" target="Z8j0xVn-qenzTuLZ5LcE-19">
          <mxGeometry relative="1" as="geometry">
            <Array as="points">
              <mxPoint x="284" y="520" />
              <mxPoint x="427" y="520" />
            </Array>
          </mxGeometry>
        </mxCell>
        <mxCell id="Z8j0xVn-qenzTuLZ5LcE-27" value="&lt;div&gt;&lt;br&gt;&lt;/div&gt;&lt;div&gt;Corrected&lt;/div&gt;&lt;div&gt;Genome&lt;/div&gt;&lt;div&gt;(.fasta / .gbk)&lt;/div&gt;" style="shape=note;whiteSpace=wrap;html=1;backgroundOutline=1;darkOpacity=0.05;" parent="1" vertex="1">
          <mxGeometry x="244" y="410" width="80" height="100" as="geometry" />
        </mxCell>
        <mxCell id="Z8j0xVn-qenzTuLZ5LcE-57" style="edgeStyle=orthogonalEdgeStyle;rounded=0;orthogonalLoop=1;jettySize=auto;html=1;entryX=0.5;entryY=0;entryDx=0;entryDy=0;curved=1;" parent="1" source="Z8j0xVn-qenzTuLZ5LcE-32" target="Z8j0xVn-qenzTuLZ5LcE-35" edge="1">
          <mxGeometry relative="1" as="geometry" />
        </mxCell>
        <mxCell id="Z8j0xVn-qenzTuLZ5LcE-32" value="&lt;div&gt;&lt;br&gt;&lt;/div&gt;&lt;div&gt;Secondary&lt;/div&gt;&lt;div&gt;Structure&lt;/div&gt;&lt;div&gt;Analysis&lt;/div&gt;" style="shape=note;whiteSpace=wrap;html=1;backgroundOutline=1;darkOpacity=0.05;" parent="1" vertex="1">
          <mxGeometry x="244" y="630" width="80" height="100" as="geometry" />
        </mxCell>
        <mxCell id="Z8j0xVn-qenzTuLZ5LcE-35" value="Filtering and&lt;div&gt;Integration&lt;/div&gt;" style="shape=parallelogram;perimeter=parallelogramPerimeter;whiteSpace=wrap;html=1;fixedSize=1;fillColor=#FFA914;" parent="1" vertex="1">
          <mxGeometry x="224" y="770" width="120" height="60" as="geometry" />
        </mxCell>
        <mxCell id="Z8j0xVn-qenzTuLZ5LcE-41" value="&lt;div&gt;&lt;br&gt;&lt;/div&gt;&lt;div&gt;Obelisk Candidates&lt;/div&gt;&lt;div&gt;(.fasta / .gbk)&lt;/div&gt;" style="shape=note;whiteSpace=wrap;html=1;backgroundOutline=1;darkOpacity=0.05;" parent="1" vertex="1">
          <mxGeometry x="244" y="860" width="80" height="100" as="geometry" />
        </mxCell>
        <mxCell id="Z8j0xVn-qenzTuLZ5LcE-43" value="Tormentor pipeline" style="text;html=1;align=center;verticalAlign=middle;whiteSpace=wrap;rounded=0;fontSize=28;fontStyle=1" parent="1" vertex="1">
          <mxGeometry x="219" y="110" width="390" height="30" as="geometry" />
        </mxCell>
        <mxCell id="B1VOk_Cgj1nYwEQHLCgj-27" style="edgeStyle=orthogonalEdgeStyle;rounded=0;orthogonalLoop=1;jettySize=auto;html=1;" edge="1" parent="1" source="Z8j0xVn-qenzTuLZ5LcE-44" target="Z8j0xVn-qenzTuLZ5LcE-46">
          <mxGeometry relative="1" as="geometry" />
        </mxCell>
        <mxCell id="Z8j0xVn-qenzTuLZ5LcE-44" value="BLAST" style="rounded=1;whiteSpace=wrap;html=1;fillColor=#24FFFF;" parent="1" vertex="1">
          <mxGeometry x="81.5" y="540" width="120" height="60" as="geometry" />
        </mxCell>
        <mxCell id="Z8j0xVn-qenzTuLZ5LcE-56" style="edgeStyle=orthogonalEdgeStyle;rounded=0;orthogonalLoop=1;jettySize=auto;html=1;entryX=0.5;entryY=0;entryDx=0;entryDy=0;curved=1;" parent="1" source="Z8j0xVn-qenzTuLZ5LcE-46" target="Z8j0xVn-qenzTuLZ5LcE-35" edge="1">
          <mxGeometry relative="1" as="geometry">
            <Array as="points">
              <mxPoint x="142" y="740" />
              <mxPoint x="284" y="740" />
            </Array>
          </mxGeometry>
        </mxCell>
        <mxCell id="Z8j0xVn-qenzTuLZ5LcE-46" value="Oblin identification" style="shape=note;whiteSpace=wrap;html=1;backgroundOutline=1;darkOpacity=0.05;" parent="1" vertex="1">
          <mxGeometry x="101.5" y="630" width="80" height="100" as="geometry" />
        </mxCell>
        <mxCell id="Z8j0xVn-qenzTuLZ5LcE-53" value="RNAfold" style="rounded=1;whiteSpace=wrap;html=1;fillColor=#24FFFF;" parent="1" vertex="1">
          <mxGeometry x="224" y="540" width="120" height="60" as="geometry" />
        </mxCell>
        <mxCell id="Z8j0xVn-qenzTuLZ5LcE-55" style="edgeStyle=orthogonalEdgeStyle;rounded=0;orthogonalLoop=1;jettySize=auto;html=1;entryX=0.5;entryY=0;entryDx=0;entryDy=0;entryPerimeter=0;" parent="1" source="Z8j0xVn-qenzTuLZ5LcE-53" target="Z8j0xVn-qenzTuLZ5LcE-32" edge="1">
          <mxGeometry relative="1" as="geometry" />
        </mxCell>
        <mxCell id="B1VOk_Cgj1nYwEQHLCgj-3" style="edgeStyle=orthogonalEdgeStyle;rounded=0;orthogonalLoop=1;jettySize=auto;html=1;entryX=0;entryY=0.5;entryDx=0;entryDy=0;" edge="1" parent="1" source="B1VOk_Cgj1nYwEQHLCgj-1" target="B1VOk_Cgj1nYwEQHLCgj-2">
          <mxGeometry relative="1" as="geometry" />
        </mxCell>
        <mxCell id="B1VOk_Cgj1nYwEQHLCgj-1" value="&lt;div&gt;&lt;br&gt;&lt;/div&gt;&lt;div&gt;Raw&lt;/div&gt;reads&lt;div&gt;(.fastq)&lt;/div&gt;" style="shape=note;whiteSpace=wrap;html=1;backgroundOutline=1;darkOpacity=0.05;" vertex="1" parent="1">
          <mxGeometry x="104" y="180" width="80" height="100" as="geometry" />
        </mxCell>
        <mxCell id="B1VOk_Cgj1nYwEQHLCgj-2" value="FASTP" style="rounded=1;whiteSpace=wrap;html=1;fillColor=#24FFFF;" vertex="1" parent="1">
          <mxGeometry x="224" y="200" width="120" height="60" as="geometry" />
        </mxCell>
        <mxCell id="B1VOk_Cgj1nYwEQHLCgj-4" style="edgeStyle=orthogonalEdgeStyle;rounded=0;orthogonalLoop=1;jettySize=auto;html=1;entryX=0;entryY=0.5;entryDx=0;entryDy=0;entryPerimeter=0;" edge="1" parent="1" source="B1VOk_Cgj1nYwEQHLCgj-2" target="Z8j0xVn-qenzTuLZ5LcE-3">
          <mxGeometry relative="1" as="geometry" />
        </mxCell>
        <mxCell id="B1VOk_Cgj1nYwEQHLCgj-5" style="edgeStyle=orthogonalEdgeStyle;rounded=0;orthogonalLoop=1;jettySize=auto;html=1;entryX=0;entryY=0.5;entryDx=0;entryDy=0;entryPerimeter=0;" edge="1" parent="1" source="Z8j0xVn-qenzTuLZ5LcE-1" target="Z8j0xVn-qenzTuLZ5LcE-5">
          <mxGeometry relative="1" as="geometry" />
        </mxCell>
        <mxCell id="B1VOk_Cgj1nYwEQHLCgj-21" style="edgeStyle=orthogonalEdgeStyle;rounded=0;orthogonalLoop=1;jettySize=auto;html=1;entryX=0;entryY=0.5;entryDx=0;entryDy=0;entryPerimeter=0;" edge="1" parent="1" source="Z8j0xVn-qenzTuLZ5LcE-22" target="Z8j0xVn-qenzTuLZ5LcE-27">
          <mxGeometry relative="1" as="geometry" />
        </mxCell>
        <mxCell id="B1VOk_Cgj1nYwEQHLCgj-31" style="edgeStyle=orthogonalEdgeStyle;rounded=0;orthogonalLoop=1;jettySize=auto;html=1;curved=1;" edge="1" parent="1" source="B1VOk_Cgj1nYwEQHLCgj-28" target="Z8j0xVn-qenzTuLZ5LcE-35">
          <mxGeometry relative="1" as="geometry">
            <Array as="points">
              <mxPoint x="427" y="740" />
              <mxPoint x="284" y="740" />
            </Array>
          </mxGeometry>
        </mxCell>
        <mxCell id="B1VOk_Cgj1nYwEQHLCgj-28" value="Ribozyme&lt;div&gt;morifs&lt;/div&gt;" style="shape=note;whiteSpace=wrap;html=1;backgroundOutline=1;darkOpacity=0.05;" vertex="1" parent="1">
          <mxGeometry x="386.5" y="630" width="80" height="100" as="geometry" />
        </mxCell>
        <mxCell id="B1VOk_Cgj1nYwEQHLCgj-32" style="edgeStyle=orthogonalEdgeStyle;rounded=0;orthogonalLoop=1;jettySize=auto;html=1;entryX=0.5;entryY=0;entryDx=0;entryDy=0;entryPerimeter=0;" edge="1" parent="1" source="Z8j0xVn-qenzTuLZ5LcE-35" target="Z8j0xVn-qenzTuLZ5LcE-41">
          <mxGeometry relative="1" as="geometry" />
        </mxCell>
      </root>
    </mxGraphModel>
  </diagram>
</mxfile>
